<svg width="30" height="30" viewBox="0 0 30 30" fill="none" xmlns="http://www.w3.org/2000/svg">
<path d="M7.56 17.19C7.56 16.31 7.8 15.3 8.28 14.16C8.76 13.02 9.38 11.91 10.14 10.85C11.7 8.79 13.06 7.23 14.2 6.18L14.95 5.46C15.2 5.72 15.48 5.96 15.78 6.18C16.19 6.6 16.82 7.29 17.66 8.27C18.5 9.25 19.23 10.12 19.83 10.92C20.54 11.93 21.15 13.02 21.64 14.17C22.13 15.32 22.38 16.33 22.38 17.2C22.38 18.2 22.19 19.15 21.8 20.06C21.41 20.97 20.89 21.76 20.23 22.42C19.57 23.08 18.78 23.61 17.86 24C16.94 24.39 15.97 24.59 14.95 24.59C13.95 24.59 13 24.4 12.09 24.02C11.18 23.64 10.39 23.13 9.73 22.47C9.07 21.82 8.54 21.03 8.15 20.12C7.76 19.21 7.56 18.23 7.56 17.19ZM9.82 14.26C9.82 15.09 9.99 15.75 10.34 16.25C10.69 16.74 11.22 16.99 11.93 16.99C12.65 16.99 13.18 16.74 13.54 16.25C13.89 15.76 14.07 15.1 14.08 14.26C14.07 13.42 13.89 12.76 13.54 12.26C13.19 11.77 12.65 11.52 11.93 11.52C11.22 11.52 10.69 11.77 10.34 12.26C9.99 12.76 9.82 13.42 9.82 14.26ZM11.39 14.26V13.91C11.39 13.83 11.4 13.72 11.41 13.58C11.42 13.44 11.43 13.33 11.46 13.26C11.49 13.19 11.51 13.1 11.55 13.02C11.59 12.94 11.64 12.87 11.7 12.84C11.77 12.8 11.84 12.78 11.93 12.78C12.07 12.78 12.18 12.82 12.26 12.9C12.34 12.98 12.4 13.11 12.43 13.28C12.46 13.46 12.48 13.6 12.49 13.73C12.5 13.86 12.5 14.03 12.5 14.25C12.5 14.48 12.5 14.65 12.49 14.77C12.48 14.89 12.46 15.04 12.43 15.22C12.4 15.39 12.34 15.52 12.26 15.6C12.18 15.68 12.07 15.72 11.93 15.72C11.84 15.72 11.77 15.7 11.7 15.66C11.63 15.62 11.5767 15.5561 11.55 15.48C11.51 15.4 11.48 15.31 11.46 15.24C11.44 15.16 11.42 15.05 11.41 14.92C11.4 14.78 11.39 14.67 11.39 14.6V14.26ZM11.98 22.01H13.3L18.29 11.27H16.94L11.98 22.01ZM16.28 19.02C16.29 19.86 16.48 20.52 16.83 21.02C17.18 21.51 17.72 21.76 18.43 21.76C19.15 21.76 19.68 21.51 20.03 21.02C20.38 20.53 20.55 19.86 20.56 19.02C20.55 18.18 20.38 17.52 20.03 17.03C19.68 16.54 19.15 16.29 18.43 16.29C17.72 16.29 17.18 16.54 16.83 17.03C16.47 17.52 16.29 18.18 16.28 19.02ZM17.85 19.02C17.85 18.79 17.85 18.62 17.86 18.5C17.87 18.38 17.89 18.23 17.92 18.05C17.95 17.87 18.01 17.75 18.09 17.67C18.17 17.59 18.28 17.55 18.42 17.55C18.51 17.55 18.59 17.57 18.66 17.61C18.73 17.65 18.78 17.71 18.82 17.8C18.86 17.89 18.89 17.97 18.92 18.04C18.95 18.11 18.96 18.22 18.97 18.36L18.98 18.68V19.37L18.97 19.69L18.92 20.01L18.82 20.25L18.66 20.44L18.42 20.5C18.28 20.5 18.17 20.46 18.09 20.38C18.01 20.3 17.95 20.17 17.92 20C17.89 19.82 17.87 19.67 17.86 19.55C17.85 19.43 17.85 19.25 17.85 19.02Z" fill="#f2f2f2"/>
</svg>
