<?xml version="1.0" standalone="no"?>
<!DOCTYPE svg PUBLIC "-//W3C//DTD SVG 20010904//EN"
 "http://www.w3.org/TR/2001/REC-SVG-20010904/DTD/svg10.dtd">
<svg version="1.0" xmlns="http://www.w3.org/2000/svg"
 width="700.000000pt" height="700.000000pt" viewBox="0 0 700.000000 700.000000"
 preserveAspectRatio="xMidYMid meet">
<metadata>
Created by potrace 1.14, written by Peter Selinger 2001-2017
</metadata>
<g transform="translate(0.000000,700.000000) scale(0.100000,-0.100000)"
fill="#000000" stroke="none">
<path d="M3176 6938 c-42 -153 -188 -476 -297 -657 -22 -34 -39 -64 -39 -66 0
-16 -237 -343 -315 -434 -116 -136 -285 -303 -405 -401 -30 -25 -59 -49 -65
-55 -7 -5 -26 -21 -44 -35 -18 -14 -38 -30 -44 -35 -25 -23 -177 -126 -272
-185 -55 -35 -183 -106 -285 -158 -243 -124 -278 -144 -390 -220 -299 -204
-583 -511 -743 -802 -106 -194 -156 -308 -223 -505 -26 -77 -49 -145 -51 -151
-4 -10 40 -31 80 -38 93 -17 537 -225 710 -333 l37 -23 28 46 c275 469 664
869 1122 1156 132 83 169 103 360 198 474 236 802 470 1156 824 162 162 264
278 367 416 31 41 60 80 65 85 19 24 133 196 170 256 97 160 211 376 257 484
l16 40 -73 68 c-271 252 -567 414 -1023 561 -44 14 -80 26 -81 26 -1 0 -9 -28
-18 -62z"/>
<path d="M4785 5532 c-144 -253 -369 -567 -569 -792 -86 -98 -406 -409 -496
-484 -52 -43 -106 -87 -118 -98 -65 -54 -261 -195 -377 -270 -180 -117 -311
-191 -515 -293 -384 -192 -561 -316 -810 -566 -173 -173 -319 -369 -437 -585
l-50 -91 92 -95 c106 -111 216 -246 309 -378 36 -52 70 -100 76 -107 5 -7 10
-14 10 -17 0 -2 23 -42 52 -88 28 -45 85 -148 126 -227 69 -132 76 -143 86
-120 31 78 139 290 197 390 162 279 311 471 549 710 276 277 531 463 887 645
277 142 352 183 478 262 411 256 787 591 1062 945 35 45 70 90 78 99 30 36
165 239 165 248 0 6 -28 38 -62 73 -256 255 -444 510 -608 822 -35 66 -63 121
-64 121 -1 1 -28 -46 -61 -104z"/>
<path d="M6124 4123 c-44 -66 -233 -318 -261 -348 -10 -11 -38 -45 -63 -75
-123 -149 -357 -383 -545 -546 -67 -58 -286 -225 -380 -290 -212 -147 -382
-246 -690 -402 -333 -168 -528 -305 -750 -526 -130 -130 -165 -170 -261 -297
-208 -274 -358 -571 -455 -904 -17 -55 -32 -106 -34 -113 -5 -15 36 -53 152
-140 99 -74 104 -77 183 -127 67 -42 318 -168 380 -190 120 -43 364 -124 366
-122 2 2 10 29 18 61 35 134 189 473 300 659 147 248 368 532 548 707 198 191
346 312 543 442 143 94 188 120 390 223 240 123 262 136 390 223 380 260 679
622 858 1042 25 58 56 141 71 185 14 44 37 113 51 154 13 41 24 75 22 76 -1 1
-27 10 -57 20 -183 58 -428 171 -619 284 -56 33 -106 61 -110 61 -4 0 -25 -26
-47 -57z"/>
</g>
</svg>
