<svg width="30" height="30" viewBox="0 0 30 30" fill="none" xmlns="http://www.w3.org/2000/svg">
<path d="M4.37002 14.62C4.37002 14.38 4.45002 14.17 4.62002 14C4.79002 13.84 5.00002 13.76 5.22002 13.76H7.26002C7.49002 13.76 7.68002 13.84 7.84002 14.01C7.99002 14.18 8.07002 14.38 8.07002 14.62C8.07002 14.86 8.00002 15.06 7.85002 15.23C7.70002 15.4 7.50002 15.48 7.27002 15.48H5.23002C5.00002 15.48 4.80002 15.4 4.63002 15.23C4.54718 15.1516 4.48135 15.057 4.43662 14.952C4.39189 14.8471 4.36922 14.7341 4.37002 14.62ZM7.23002 21.55C7.23002 21.32 7.31002 21.12 7.46002 20.94L8.93002 19.51C9.08002 19.35 9.28002 19.28 9.52002 19.28C9.76002 19.28 9.96002 19.36 10.12 19.51C10.28 19.66 10.36 19.85 10.36 20.08C10.36 20.32 10.28 20.54 10.12 20.72L8.70002 22.14C8.29001 22.46 7.88002 22.46 7.47002 22.14C7.39208 22.0631 7.3306 21.9711 7.28934 21.8697C7.24808 21.7682 7.2279 21.6595 7.23002 21.55ZM7.23002 7.71C7.23002 7.48 7.31002 7.28 7.46002 7.1C7.66002 6.93 7.87002 6.85 8.10002 6.85C8.32002 6.85 8.52001 6.93 8.69001 7.09L10.12 8.56C10.28 8.71 10.36 8.91 10.36 9.15C10.36 9.39 10.28 9.59 10.12 9.75C9.96002 9.91 9.76002 9.99 9.52002 9.99C9.28002 9.99 9.08002 9.91 8.93002 9.75L7.47002 8.32C7.39102 8.2397 7.32905 8.14429 7.28781 8.03947C7.24658 7.93466 7.22692 7.82259 7.23002 7.71ZM9.78001 14.62C9.78001 13.69 10.01 12.82 10.48 12.02C10.95 11.22 11.58 10.58 12.39 10.11C13.2 9.64 14.06 9.41 14.99 9.41C15.69 9.41 16.36 9.55 17.01 9.83C17.65 10.11 18.21 10.48 18.67 10.95C19.14 11.42 19.51 11.97 19.78 12.61C20.05 13.25 20.19 13.93 20.19 14.63C20.19 15.57 19.96 16.44 19.49 17.24C19.02 18.04 18.39 18.67 17.59 19.14C16.79 19.61 15.92 19.84 14.98 19.84C14.04 19.84 13.17 19.61 12.37 19.14C11.57 18.67 10.94 18.04 10.47 17.24C10.02 16.43 9.78001 15.56 9.78001 14.62ZM11.48 14.62C11.48 15.6 11.82 16.43 12.51 17.12C13.19 17.81 14.02 18.16 15 18.16C15.98 18.16 16.81 17.81 17.5 17.12C18.19 16.43 18.54 15.6 18.54 14.62C18.54 13.66 18.19 12.84 17.5 12.15C16.81 11.47 15.98 11.13 15 11.13C14.03 11.13 13.2 11.47 12.52 12.15C11.82 12.84 11.48 13.66 11.48 14.62ZM14.14 22.4C14.14 22.16 14.22 21.96 14.39 21.8C14.56 21.64 14.76 21.56 14.99 21.56C15.23 21.56 15.44 21.64 15.6 21.8C15.76 21.96 15.84 22.16 15.84 22.4V24.39C15.84 24.63 15.76 24.84 15.59 25.01C15.42 25.18 15.22 25.26 14.99 25.26C14.76 25.26 14.55 25.18 14.39 25.01C14.3084 24.9291 14.2441 24.8324 14.2011 24.7258C14.1581 24.6192 14.1373 24.5049 14.14 24.39V22.4ZM14.14 6.9V4.86C14.14 4.63 14.22 4.43 14.39 4.26C14.56 4.09 14.76 4 15 4C15.24 4 15.43 4.08 15.6 4.25C15.77 4.42 15.85 4.62 15.85 4.85V6.9C15.85 7.13 15.77 7.32 15.6 7.48C15.43 7.64 15.23 7.71 15 7.71C14.77 7.71 14.56 7.63 14.4 7.48C14.24 7.33 14.14 7.13 14.14 6.9ZM19.66 20.08C19.66 19.85 19.74 19.66 19.89 19.52C20.04 19.36 20.23 19.29 20.45 19.29C20.69 19.29 20.89 19.37 21.05 19.52L22.51 20.95C22.67 21.12 22.75 21.33 22.75 21.56C22.75 21.79 22.67 21.99 22.51 22.15C22.11 22.46 21.71 22.46 21.31 22.15L19.89 20.73C19.7367 20.5486 19.6549 20.3175 19.66 20.08ZM19.66 9.16C19.66 8.91 19.74 8.71 19.89 8.57L21.31 7.1C21.4675 6.94565 21.6795 6.85944 21.9 6.86C22.14 6.86 22.34 6.94 22.5 7.11C22.67 7.28 22.75 7.48 22.75 7.71C22.75 7.96 22.67 8.17 22.51 8.33L21.05 9.76C20.87 9.92 20.67 10 20.45 10C20.22 10 20.04 9.92 19.89 9.76C19.74 9.6 19.66 9.4 19.66 9.16ZM21.92 14.62C21.92 14.38 22 14.18 22.16 14C22.32 13.84 22.51 13.76 22.73 13.76H24.75C24.98 13.76 25.18 13.85 25.35 14.02C25.52 14.19 25.61 14.39 25.61 14.62C25.61 14.85 25.52 15.05 25.35 15.22C25.18 15.39 24.98 15.47 24.75 15.47H22.73C22.5 15.47 22.3 15.39 22.15 15.22C22 15.05 21.92 14.86 21.92 14.62Z" fill="#f2f2f2"/>
</svg>
