<svg width="30" height="30" viewBox="0 0 30 30" fill="none" xmlns="http://www.w3.org/2000/svg">
<path d="M3.08997 13.4299C3.08997 13.6999 3.17997 13.9199 3.36997 14.0999C3.55997 14.2799 3.79997 14.3599 4.08997 14.3599H5.77997C6.04997 14.3599 6.27997 14.2699 6.46997 14.0899C6.65997 13.9099 6.75997 13.6899 6.75997 13.4299C6.75997 13.1399 6.66997 12.8999 6.47997 12.7199C6.28997 12.5399 6.05997 12.4399 5.78997 12.4399H4.08997C3.79997 12.4399 3.55997 12.5299 3.36997 12.7199C3.17997 12.8899 3.08997 13.1299 3.08997 13.4299ZM4.85997 19.6099C4.85997 20.5799 5.20997 21.4199 5.91997 22.1299C6.62997 22.8399 7.45997 23.1899 8.42997 23.1899H15.29C16.26 23.1899 17.09 22.8399 17.78 22.1399C18.47 21.4399 18.82 20.5999 18.82 19.6099C18.82 19.1299 18.75 18.7199 18.61 18.3799C19.44 17.8499 20.1 17.1399 20.58 16.2599C21.06 15.3799 21.31 14.4299 21.31 13.4199C21.31 12.6099 21.15 11.8299 20.83 11.0899C20.5282 10.3779 20.0938 9.72972 19.55 9.17995C19.0002 8.63606 18.352 8.20168 17.64 7.89995C16.9 7.57995 16.13 7.41995 15.32 7.41995C14.23 7.41995 13.22 7.68995 12.3 8.22995C11.38 8.76995 10.65 9.49995 10.12 10.4099C9.58997 11.3299 9.32997 12.3299 9.32997 13.4199V13.7599C8.32997 14.3299 7.66997 15.1599 7.34997 16.2499C6.58997 16.4899 5.98997 16.9099 5.53997 17.5199C5.09086 18.1235 4.85199 18.8577 4.85997 19.6099ZM6.41997 5.44995C6.41997 5.72995 6.50997 5.95995 6.67997 6.11995L8.28997 7.80995C8.75997 8.16995 9.22997 8.16995 9.69997 7.80995C9.88997 7.61995 9.97997 7.38995 9.97997 7.10995C9.97997 6.83995 9.88997 6.60995 9.69997 6.40995L8.04997 4.75995C7.83997 4.56995 7.59997 4.46995 7.34997 4.46995C7.06997 4.46995 6.83997 4.55995 6.66997 4.74995C6.49997 4.93995 6.41997 5.16995 6.41997 5.44995ZM6.83997 19.6099C6.83997 19.1899 6.96997 18.8299 7.23997 18.5299C7.50997 18.2299 7.84997 18.0599 8.25997 18.0199L8.87997 17.9399C9.00997 17.9399 9.07997 17.8599 9.07997 17.7099L9.16997 17.1499C9.23997 16.5699 9.47997 16.0899 9.89997 15.7099C10.32 15.3199 10.81 15.1299 11.38 15.1299C11.96 15.1299 12.47 15.3199 12.89 15.7099C13.32 16.0999 13.57 16.5799 13.64 17.1499L13.72 17.7999C13.78 17.9499 13.86 18.0299 13.96 18.0299H15.28C15.71 18.0299 16.08 18.1899 16.4 18.4999C16.72 18.8099 16.87 19.1799 16.87 19.6199C16.87 20.0699 16.71 20.4499 16.4 20.7699C16.09 21.0899 15.71 21.2499 15.28 21.2499H8.42997C7.97997 21.2499 7.59997 21.0899 7.29997 20.7699C6.98997 20.4499 6.83997 20.0599 6.83997 19.6099ZM11.26 13.2199C11.33 12.1299 11.75 11.2099 12.53 10.4599C13.3 9.71995 14.24 9.33995 15.32 9.33995C16.43 9.33995 17.38 9.73995 18.16 10.5299C18.94 11.3199 19.33 12.2899 19.33 13.4199C19.33 14.1199 19.16 14.7699 18.82 15.3699C18.48 15.9699 18.02 16.4499 17.44 16.8199C16.85 16.3299 16.17 16.0899 15.41 16.0899C15.12 15.2099 14.6 14.5199 13.87 13.9999C13.14 13.4799 12.31 13.2199 11.39 13.2199H11.26ZM14.35 4.46995C14.35 4.73995 14.45 4.97995 14.64 5.16995C14.83 5.35995 15.06 5.45995 15.33 5.45995C15.61 5.45995 15.84 5.35995 16.03 5.16995C16.1237 5.07941 16.1979 4.97054 16.2478 4.85011C16.2977 4.72968 16.3222 4.60028 16.32 4.46995V2.12995C16.32 1.86995 16.22 1.64995 16.03 1.46995C15.9369 1.3809 15.8272 1.31119 15.707 1.26484C15.5869 1.2185 15.4587 1.19644 15.33 1.19995C15.06 1.19995 14.83 1.28995 14.64 1.46995C14.45 1.64995 14.35 1.86995 14.35 2.12995V4.46995ZM20.67 19.6999C20.67 19.9699 20.76 20.1999 20.94 20.3999L22.58 22.0199C23 22.4399 23.47 22.4399 23.99 22.0199C24.17 21.8499 24.25 21.6299 24.25 21.3399C24.25 21.0699 24.16 20.8499 23.99 20.6699L22.3 18.9999C22.115 18.8303 21.8707 18.7405 21.62 18.7499C21.34 18.7499 21.12 18.8399 20.94 19.0199C20.76 19.1999 20.67 19.4299 20.67 19.6999ZM20.67 7.08995C20.67 7.36995 20.76 7.60995 20.94 7.80995C21.12 7.98995 21.35 8.07995 21.62 8.07995C21.89 8.07995 22.12 7.98995 22.3 7.80995L23.99 6.11995C24.17 5.94995 24.25 5.72995 24.25 5.44995C24.25 5.16995 24.15 4.93995 23.96 4.75995C23.77 4.57995 23.54 4.47995 23.26 4.47995C23 4.47995 22.77 4.57995 22.58 4.76995L20.94 6.39995C20.76 6.57995 20.67 6.80995 20.67 7.08995ZM23.25 13.4299C23.25 13.6999 23.34 13.9199 23.53 14.0999C23.72 14.2799 23.96 14.3599 24.25 14.3599H25.94C26.21 14.3599 26.44 14.2699 26.63 14.0899C26.82 13.9099 26.92 13.6899 26.92 13.4299C26.92 13.1399 26.83 12.8999 26.64 12.7199C26.45 12.5399 26.22 12.4399 25.95 12.4399H24.26C23.97 12.4399 23.73 12.5299 23.54 12.7199C23.35 12.8899 23.25 13.1299 23.25 13.4299Z" fill="#f2f2f2"/>
</svg>
