<svg width="30" height="30" viewBox="0 0 30 30" fill="none" xmlns="http://www.w3.org/2000/svg">
<path d="M4.60999 16.88C4.60999 15.73 4.96999 14.71 5.68999 13.81C6.40999 12.91 7.31999 12.33 8.42999 12.08C8.73999 10.71 9.44999 9.59001 10.54 8.71001C11.63 7.83001 12.89 7.39001 14.3 7.39001C15.68 7.39001 16.91 7.82001 17.99 8.67001C19.07 9.52001 19.77 10.62 20.09 11.96H20.42C21.32 11.96 22.15 12.18 22.91 12.61C23.67 13.04 24.28 13.64 24.72 14.4C25.16 15.16 25.39 15.98 25.39 16.88C25.3964 17.7318 25.1825 18.5707 24.7689 19.3154C24.3554 20.0601 23.7564 20.6852 23.03 21.13C22.3 21.58 21.49 21.82 20.62 21.85H9.40999C8.06998 21.79 6.93999 21.28 6.00999 20.32C5.07999 19.37 4.60999 18.22 4.60999 16.88ZM6.31999 16.88C6.31999 17.75 6.61999 18.5 7.21999 19.14C7.81998 19.78 8.54998 20.12 9.40999 20.17H20.6C21.46 20.13 22.19 19.78 22.79 19.14C23.4 18.5 23.7 17.74 23.7 16.88C23.7 16 23.37 15.25 22.72 14.61C22.07 13.97 21.3 13.65 20.4 13.65H18.8C18.69 13.65 18.63 13.59 18.63 13.47L18.56 12.9C18.45 11.82 17.98 10.91 17.16 10.18C16.34 9.45002 15.39 9.08001 14.3 9.08001C13.21 9.08001 12.25 9.45002 11.45 10.18C10.64 10.91 10.18 11.82 10.08 12.9L9.99999 13.47C9.99999 13.59 9.92999 13.65 9.79999 13.65H9.26999C8.42999 13.75 7.72999 14.11 7.16999 14.72C6.60999 15.33 6.31999 16.05 6.31999 16.88Z" fill="#f2f2f2"/>
</svg>
