<svg width="30" height="30" viewBox="0 0 30 30" fill="none" xmlns="http://www.w3.org/2000/svg">
<path d="M4.64001 16.8999C4.64001 18.2299 5.10001 19.3699 6.03001 20.3299C6.96002 21.2899 8.09001 21.7999 9.43002 21.8599C9.54002 21.8599 9.60002 21.7999 9.60002 21.6899V20.3499C9.60002 20.2399 9.54002 20.1799 9.43002 20.1799C8.57001 20.1399 7.85001 19.7999 7.25001 19.1599C6.65001 18.5199 6.35001 17.7699 6.35001 16.8999C6.35001 16.0699 6.63001 15.3599 7.19001 14.7399C7.75001 14.1299 8.45001 13.7699 9.28001 13.6699L9.81002 13.6399C9.94002 13.6399 10.01 13.5799 10.01 13.4499L10.07 12.9199C10.18 11.8399 10.63 10.9299 11.44 10.2099C12.25 9.47994 13.2 9.11994 14.29 9.11994C15.38 9.11994 16.33 9.47994 17.14 10.2099C17.95 10.9399 18.41 11.8399 18.53 12.9199L18.61 13.4999C18.61 13.6099 18.67 13.6699 18.79 13.6699H20.4C21.29 13.6699 22.06 13.9899 22.71 14.6299C23.36 15.2699 23.69 16.0199 23.69 16.8999C23.69 17.7699 23.39 18.5199 22.79 19.1599C22.19 19.7999 21.46 20.1399 20.61 20.1799C20.48 20.1799 20.41 20.2399 20.41 20.3499V21.6899C20.41 21.7999 20.48 21.8599 20.61 21.8599C21.48 21.8399 22.28 21.5999 23.01 21.1499C23.74 20.6999 24.32 20.0999 24.74 19.3499C25.16 18.5999 25.37 17.7799 25.37 16.9099C25.37 16.0199 25.15 15.1899 24.7 14.4399C24.26 13.6899 23.65 13.0899 22.89 12.6599C22.13 12.2299 21.29 11.9999 20.4 11.9999H20.08C19.76 10.6599 19.05 9.56994 17.98 8.71994C16.91 7.86994 15.68 7.43994 14.3 7.43994C12.89 7.43994 11.64 7.87994 10.55 8.74994C9.48117 9.58791 8.73843 10.7728 8.45001 12.0999C7.34001 12.3599 6.43001 12.9299 5.72001 13.8299C5.01001 14.7299 4.64001 15.7499 4.64001 16.8999ZM10.09 24.0999C10.18 24.3099 10.34 24.4699 10.55 24.5599C10.75 24.6599 10.96 24.6699 11.17 24.5799C11.39 24.4899 11.53 24.3399 11.62 24.1299C11.72 23.9099 11.73 23.6999 11.64 23.4899C11.56 23.2799 11.4 23.1399 11.19 23.0499C10.99 22.9399 10.79 22.9299 10.58 23.0199C10.476 23.0638 10.3817 23.128 10.3027 23.2087C10.2237 23.2893 10.1616 23.385 10.12 23.4899C10.01 23.6599 10.01 23.8599 10.09 24.0999ZM10.72 21.2799C10.72 21.4399 10.77 21.5899 10.87 21.7299C10.97 21.8799 11.13 21.9799 11.33 22.0499C11.52 22.1599 11.73 22.1699 11.95 22.0599C12.17 21.9599 12.32 21.7599 12.39 21.4599L13.29 18.0799C13.35 17.8299 13.33 17.6099 13.21 17.4099C13.1553 17.3132 13.0791 17.2304 12.9871 17.1679C12.8952 17.1055 12.7901 17.0651 12.68 17.0499C12.5602 17.0163 12.4343 17.0096 12.3116 17.0303C12.1888 17.0511 12.0722 17.0988 11.97 17.1699C11.82 17.2699 11.71 17.4199 11.65 17.6099L10.77 20.9999C10.73 21.1599 10.72 21.2499 10.72 21.2799ZM12.58 26.8699C12.58 26.9899 12.6 27.0899 12.64 27.1599C12.73 27.3799 12.88 27.5299 13.09 27.6099C13.18 27.6599 13.29 27.6899 13.42 27.6899C13.48 27.6899 13.58 27.6699 13.72 27.6299C13.94 27.5499 14.1 27.3999 14.19 27.1799C14.29 26.9599 14.29 26.7399 14.19 26.5199C14.1035 26.3153 13.9427 26.151 13.74 26.0599C13.54 25.9699 13.34 25.9699 13.12 26.0599C12.9458 26.1289 12.8009 26.2561 12.71 26.4199C12.62 26.5799 12.58 26.7299 12.58 26.8699ZM13.31 24.2599C13.31 24.6299 13.52 24.8699 13.94 24.9899C14.1444 25.0548 14.3657 25.0405 14.56 24.9499C14.77 24.8699 14.91 24.6799 14.98 24.3799L16.65 18.0899C16.71 17.8499 16.69 17.6399 16.59 17.4399C16.5396 17.3457 16.47 17.2632 16.3855 17.1977C16.3011 17.1322 16.2038 17.0853 16.1 17.0599C16.02 17.0399 15.93 17.0299 15.83 17.0299C15.659 17.0333 15.4925 17.0853 15.35 17.1799C15.19 17.2799 15.09 17.4299 15.05 17.6199L13.34 23.9599C13.32 24.0999 13.31 24.1999 13.31 24.2599ZM16.74 23.7999C16.74 23.9199 16.76 24.0299 16.82 24.1199C16.9 24.3099 17.05 24.4599 17.26 24.5599C17.37 24.5999 17.49 24.6299 17.61 24.6299C17.67 24.6299 17.77 24.6099 17.91 24.5699C18.12 24.4899 18.28 24.3399 18.37 24.1299C18.44 23.9099 18.44 23.6999 18.36 23.4999C18.2821 23.3021 18.132 23.1413 17.94 23.0499C17.71 22.9399 17.5 22.9299 17.29 23.0199C17.186 23.0638 17.0917 23.128 17.0127 23.2087C16.9337 23.2893 16.8716 23.385 16.83 23.4899C16.77 23.5899 16.74 23.6899 16.74 23.7999ZM17.47 21.2299C17.47 21.3699 17.52 21.5199 17.63 21.6799C17.74 21.8399 17.89 21.9499 18.08 22.0099C18.24 22.0399 18.33 22.0599 18.35 22.0599C18.44 22.0599 18.57 22.0299 18.72 21.9599C18.92 21.8699 19.05 21.6899 19.12 21.4399L20.02 18.0999L20.05 17.8399C20.05 17.6799 20 17.5299 19.9 17.3799C19.792 17.226 19.6323 17.116 19.45 17.0699C19.36 17.0499 19.27 17.0399 19.19 17.0399C19.03 17.0399 18.87 17.0899 18.72 17.1899C18.57 17.2899 18.47 17.4399 18.41 17.6399L17.51 20.9999L17.47 21.2299Z" fill="##f2f2f2"/>
</svg>
