<svg width="30" height="30" viewBox="0 0 30 30" fill="none" xmlns="http://www.w3.org/2000/svg">
<path d="M1.47998 16.91C1.47998 18.03 1.80998 19.04 2.47998 19.92C3.14998 20.8 4.00998 21.39 5.05998 21.69C5.14998 21.7 5.22998 21.68 5.29998 21.61L6.46998 20.2C5.57998 20.2 4.80998 19.88 4.16998 19.23C3.52998 18.58 3.20998 17.81 3.20998 16.9C3.20998 16.07 3.48998 15.35 4.05998 14.73C4.62998 14.12 5.32998 13.76 6.16998 13.66L6.65998 13.63C6.78998 13.63 6.85998 13.57 6.85998 13.44L6.92998 12.9C7.03998 11.82 7.49998 10.91 8.30998 10.18C9.11998 9.44995 10.08 9.07995 11.17 9.07995C12.27 9.07995 13.23 9.44995 14.05 10.18C14.87 10.91 15.33 11.82 15.44 12.9L15.51 13.49C15.55 13.6 15.63 13.66 15.73 13.66H17.37C18.25 13.66 19.01 13.98 19.65 14.61C20.29 15.24 20.61 16.01 20.61 16.89C20.61 17.73 20.33 18.47 19.76 19.1C19.19 19.73 18.51 20.08 17.69 20.15C17.2 20.21 16.9 20.3 16.79 20.43L14.6 23.25C14.5328 23.3391 14.484 23.4407 14.4566 23.5488C14.4291 23.657 14.4235 23.7696 14.44 23.88C14.47 24.11 14.57 24.3 14.75 24.44C14.9 24.61 15.1 24.68 15.35 24.65C15.6 24.62 15.8 24.5 15.95 24.29L17.87 21.83C18.69 21.75 19.44 21.48 20.12 21.01C20.8 20.55 21.33 19.95 21.73 19.22C22.12 18.49 22.32 17.71 22.32 16.88C22.32 16.16 22.18 15.49 21.9 14.87C22.69 13.91 23.08 12.8 23.08 11.54C23.08 10.83 22.94 10.16 22.66 9.50995C22.3939 8.88302 22.0103 8.31277 21.53 7.82995C21.06 7.35995 20.5 6.98995 19.85 6.70995C19.2 6.42995 18.52 6.28995 17.81 6.28995C16.31 6.28995 15.02 6.86995 13.93 8.02995C13.14 7.58995 12.23 7.36995 11.21 7.36995C9.79998 7.36995 8.54998 7.80995 7.45998 8.68995C6.36998 9.56995 5.67998 10.69 5.38998 12.06C4.25998 12.32 3.32998 12.89 2.59998 13.79C1.86998 14.69 1.47998 15.76 1.47998 16.91ZM5.37998 25.15C5.44998 25.37 5.60998 25.53 5.83998 25.63C6.05998 25.73 6.27998 25.73 6.50998 25.64C6.73998 25.55 6.88998 25.39 6.96998 25.17C7.01687 25.0733 7.04123 24.9673 7.04123 24.86C7.04123 24.7526 7.01687 24.6466 6.96998 24.55C6.88352 24.3452 6.72273 24.1809 6.51998 24.09C6.41773 24.0398 6.30596 24.0121 6.19214 24.0087C6.07832 24.0052 5.96508 24.0261 5.85998 24.07C5.63998 24.16 5.48998 24.31 5.40998 24.53C5.31998 24.78 5.30998 24.99 5.37998 25.15ZM7.18998 22.41V22.52C7.20998 22.74 7.30998 22.92 7.48998 23.07C7.66998 23.22 7.86998 23.29 8.11998 23.27C8.35998 23.25 8.54998 23.15 8.68998 22.98L10.87 20.16C11.01 19.98 11.08 19.77 11.06 19.53C11.04 19.29 10.94 19.1 10.77 18.96C10.6833 18.8873 10.5828 18.8329 10.4745 18.8003C10.3662 18.7676 10.2524 18.7573 10.14 18.77C9.89998 18.79 9.69998 18.9 9.53998 19.08L7.38998 21.88C7.24998 22.04 7.18998 22.22 7.18998 22.41ZM7.69998 27.27C7.69998 27.33 7.71998 27.43 7.75998 27.57C7.84998 27.79 7.99998 27.94 8.21998 28.03C8.32998 28.07 8.44998 28.1 8.57998 28.1C8.66998 28.1 8.77998 28.08 8.88998 28.05C9.09998 27.97 9.24998 27.82 9.32998 27.61C9.42998 27.39 9.43998 27.17 9.34998 26.94C9.31635 26.8333 9.25809 26.7361 9.17991 26.6562C9.10173 26.5763 9.00584 26.5159 8.89998 26.48C8.67998 26.38 8.45998 26.38 8.22998 26.47C7.99998 26.56 7.84998 26.71 7.77998 26.92C7.72998 27.03 7.69998 27.15 7.69998 27.27ZM9.36998 24.9V25C9.38998 25.23 9.49998 25.42 9.69998 25.58C9.84998 25.74 10.05 25.81 10.3 25.78C10.4184 25.769 10.5331 25.733 10.6365 25.6744C10.7399 25.6158 10.8297 25.5359 10.9 25.44L15.04 20.21C15.18 20.01 15.23 19.8 15.21 19.57C15.19 19.34 15.08 19.15 14.9 18.98C14.8137 18.9108 14.7142 18.86 14.6076 18.8308C14.5009 18.8016 14.3895 18.7945 14.28 18.81C14.05 18.84 13.86 18.94 13.72 19.12L9.55998 24.38C9.42998 24.53 9.36998 24.71 9.36998 24.9ZM9.94998 4.60995C9.94998 4.84995 10.04 5.04995 10.22 5.19995L10.83 5.85995C10.99 6.01995 11.17 6.09995 11.37 6.11995C11.58 6.14995 11.78 6.07995 11.98 5.89995C12.18 5.71995 12.28 5.50995 12.28 5.25995C12.28 5.03995 12.2 4.82995 12.04 4.65995L11.4 4.00995C11.3262 3.93064 11.2362 3.86814 11.1361 3.82673C11.0361 3.78531 10.9282 3.76595 10.82 3.76995C10.58 3.76995 10.37 3.84995 10.2 4.00995C10.04 4.17995 9.94998 4.37995 9.94998 4.60995ZM12.9 26.04C12.9 26.16 12.92 26.26 12.97 26.35C13.06 26.57 13.21 26.72 13.42 26.81C13.53 26.86 13.64 26.89 13.77 26.89C13.83 26.89 13.93 26.87 14.07 26.83C14.29 26.74 14.45 26.59 14.53 26.37C14.5801 26.2677 14.6078 26.1559 14.6112 26.0421C14.6147 25.9283 14.5938 25.815 14.55 25.71C14.5145 25.6054 14.4555 25.5105 14.3775 25.4325C14.2994 25.3544 14.2045 25.2954 14.1 25.26C13.996 25.2098 13.8825 25.1821 13.7671 25.1787C13.6517 25.1752 13.5368 25.1961 13.43 25.24C13.3251 25.2767 13.2295 25.3361 13.15 25.4139C13.0705 25.4916 13.0091 25.5859 12.97 25.69C12.92 25.8 12.9 25.92 12.9 26.04ZM15.3 9.02995C16.01 8.38995 16.83 8.05995 17.78 8.05995C18.77 8.05995 19.61 8.39995 20.31 9.08995C21.01 9.77995 21.36 10.6 21.36 11.58C21.36 12.24 21.19 12.86 20.84 13.44C19.87 12.47 18.71 11.99 17.36 11.99H17.02C16.7619 10.851 16.1618 9.81813 15.3 9.02995ZM16.93 3.76995C16.93 3.99995 17.01 4.19995 17.18 4.35995C17.35 4.51995 17.55 4.59995 17.78 4.59995C18.02 4.59995 18.23 4.51995 18.4 4.35995C18.57 4.19995 18.65 3.99995 18.65 3.76995V1.69995C18.65 1.46995 18.56 1.26995 18.39 1.09995C18.3105 1.0192 18.2154 0.955418 18.1106 0.912448C18.0058 0.869478 17.8933 0.848217 17.78 0.849952C17.55 0.849952 17.35 0.929952 17.18 1.09995C17.01 1.26995 16.93 1.46995 16.93 1.69995V3.76995ZM22.5 6.04995C22.5 6.28995 22.57 6.48995 22.72 6.64995C22.9 6.81995 23.1 6.89995 23.33 6.90995C23.56 6.90995 23.75 6.82995 23.9 6.64995L25.4 5.19995C25.56 5.03995 25.64 4.82995 25.64 4.58995C25.64 4.34995 25.55 4.14995 25.38 3.97995C25.3029 3.89806 25.21 3.83276 25.1068 3.78805C25.0036 3.74334 24.8924 3.72017 24.78 3.71995C24.56 3.71995 24.36 3.79995 24.18 3.96995L22.73 5.43995C22.5789 5.60688 22.4967 5.82485 22.5 6.04995ZM23.28 17.95C23.28 18.19 23.36 18.39 23.52 18.55L24.18 19.18C24.34 19.34 24.52 19.43 24.72 19.45H24.78C24.96 19.45 25.16 19.36 25.4 19.18C25.56 19.02 25.64 18.82 25.64 18.6C25.64 18.36 25.56 18.15 25.4 17.97L24.74 17.35C24.665 17.2688 24.5736 17.2046 24.4719 17.1615C24.3702 17.1184 24.2604 17.0974 24.15 17.1C23.91 17.1 23.7 17.18 23.53 17.35C23.4505 17.4283 23.3875 17.5218 23.3446 17.6248C23.3017 17.7278 23.2797 17.8384 23.28 17.95ZM24.78 11.58C24.78 11.82 24.86 12.02 25.02 12.18C25.18 12.36 25.38 12.45 25.62 12.45H27.66C27.9 12.45 28.1 12.36 28.27 12.19C28.44 12.02 28.52 11.81 28.52 11.58C28.52 11.35 28.44 11.15 28.27 10.99C28.1892 10.9117 28.0936 10.8502 27.989 10.809C27.8843 10.7678 27.7725 10.7478 27.66 10.75H25.62C25.38 10.75 25.18 10.83 25.02 10.99C24.86 11.15 24.78 11.35 24.78 11.58Z" fill="#f2f2f2"/>
</svg>
