<svg width="30" height="30" viewBox="0 0 30 30" fill="none" xmlns="http://www.w3.org/2000/svg">
<path d="M4.64001 16.9499C4.64001 15.7899 4.99001 14.7699 5.70001 13.8699C6.41001 12.9699 7.32001 12.3899 8.44001 12.1099C8.75001 10.7499 9.45001 9.62994 10.54 8.74994C11.63 7.86994 12.88 7.43994 14.29 7.43994C15.67 7.43994 16.89 7.86994 17.97 8.71994C19.05 9.56994 19.75 10.6699 20.07 12.0099H20.39C21.28 12.0099 22.11 12.2299 22.87 12.6699C23.63 13.1099 24.24 13.7099 24.68 14.4699C25.12 15.2299 25.35 16.0599 25.35 16.9499C25.35 18.2699 24.89 19.4199 23.96 20.3699C23.04 21.3299 21.91 21.8299 20.58 21.8699C20.45 21.8699 20.38 21.8099 20.38 21.6999V20.3699C20.38 20.2499 20.45 20.1899 20.58 20.1899C21.43 20.1499 22.16 19.8099 22.76 19.1699C23.36 18.5299 23.66 17.7899 23.66 16.9399C23.66 16.0499 23.34 15.2899 22.69 14.6399C22.04 13.9899 21.27 13.6699 20.37 13.6699H18.76C18.64 13.6699 18.58 13.6099 18.58 13.4999L18.5 12.9199C18.39 11.8399 17.92 10.9299 17.11 10.1999C16.29 9.46994 15.35 9.09994 14.26 9.09994C13.16 9.09994 12.21 9.46994 11.4 10.2099C10.59 10.9499 10.13 11.8599 10.03 12.9599L9.97002 13.4599C9.97002 13.5799 9.90002 13.6499 9.77002 13.6499L9.24001 13.7199C8.41001 13.7899 7.71001 14.1299 7.14001 14.7599C6.57001 15.3899 6.29001 16.1099 6.29001 16.9499C6.29001 17.7999 6.59001 18.5399 7.19001 19.1799C7.79001 19.8199 8.52001 20.1499 9.37001 20.1999C9.48001 20.1999 9.54001 20.2599 9.54001 20.3799V21.7099C9.54001 21.8199 9.48001 21.8799 9.37001 21.8799C8.03001 21.8399 6.90001 21.3399 5.97001 20.3799C5.10001 19.4199 4.64001 18.2699 4.64001 16.9499ZM11 21.0199C11 20.7999 11.08 20.5999 11.24 20.4399C11.4 20.2799 11.59 20.1999 11.83 20.1999C12.06 20.1999 12.26 20.2799 12.42 20.4399C12.58 20.5999 12.66 20.7999 12.66 21.0199C12.66 21.2599 12.58 21.4599 12.42 21.6199C12.26 21.7899 12.07 21.8699 11.83 21.8699C11.6 21.8699 11.4 21.7899 11.24 21.6199C11.1612 21.5416 11.0992 21.448 11.0579 21.3448C11.0166 21.2416 10.9969 21.131 11 21.0199ZM11 24.6499C11 24.4099 11.08 24.2099 11.24 24.0499C11.4 23.8999 11.59 23.8199 11.82 23.8199C12.05 23.8199 12.25 23.8999 12.41 24.0499C12.57 24.2099 12.65 24.3999 12.65 24.6399C12.65 24.8799 12.57 25.0699 12.41 25.2299C12.25 25.3899 12.06 25.4599 11.82 25.4599C11.6009 25.4632 11.3891 25.3806 11.23 25.2299C11.1548 25.1536 11.0956 25.0629 11.0561 24.9633C11.0166 24.8637 10.9975 24.7571 11 24.6499ZM14.19 22.9499C14.19 22.7199 14.27 22.5099 14.44 22.3299C14.6 22.1699 14.79 22.0899 15.01 22.0899C15.24 22.0899 15.44 22.1799 15.61 22.3499C15.78 22.5199 15.87 22.7199 15.87 22.9499C15.87 23.1799 15.79 23.3799 15.62 23.5499C15.45 23.7199 15.25 23.7999 15.01 23.7999C14.78 23.7999 14.59 23.7199 14.43 23.5499C14.27 23.3799 14.19 23.1799 14.19 22.9499ZM14.19 19.3299C14.19 19.0999 14.27 18.8999 14.44 18.7299C14.62 18.5699 14.81 18.4899 15.01 18.4899C15.25 18.4899 15.45 18.5699 15.62 18.7399C15.7014 18.8169 15.7656 18.9101 15.8087 19.0134C15.8518 19.1168 15.8727 19.228 15.87 19.3399C15.87 19.5699 15.79 19.7699 15.62 19.9299C15.45 20.0899 15.25 20.1699 15.01 20.1699C14.78 20.1699 14.59 20.0899 14.43 19.9299C14.2739 19.7695 14.1876 19.5538 14.19 19.3299ZM14.19 26.6099C14.19 26.3799 14.27 26.1799 14.44 25.9999C14.6 25.8399 14.79 25.7599 15.01 25.7599C15.25 25.7599 15.45 25.8399 15.62 26.0099C15.79 26.1799 15.87 26.3799 15.87 26.6099C15.87 26.8399 15.79 27.0399 15.62 27.1999C15.45 27.3599 15.25 27.4399 15.01 27.4399C14.9016 27.4394 14.7944 27.4175 14.6945 27.3755C14.5946 27.3335 14.504 27.2722 14.4278 27.1951C14.3516 27.118 14.2914 27.0266 14.2506 26.9262C14.2098 26.8258 14.1892 26.7183 14.19 26.6099ZM17.41 21.0199C17.41 20.7999 17.49 20.6099 17.66 20.4399C17.83 20.2699 18.03 20.1899 18.26 20.1899C18.49 20.1899 18.69 20.2699 18.85 20.4299C19.01 20.5899 19.09 20.7899 19.09 21.0099C19.09 21.2499 19.01 21.4499 18.85 21.6099C18.69 21.7799 18.5 21.8599 18.26 21.8599C18.02 21.8599 17.82 21.7799 17.66 21.6099C17.5807 21.5336 17.5176 21.4419 17.4747 21.3405C17.4317 21.2391 17.4097 21.1301 17.41 21.0199ZM17.41 24.6499C17.41 24.4299 17.49 24.2299 17.66 24.0499C17.82 23.8999 18.02 23.8199 18.26 23.8199C18.5 23.8199 18.69 23.8999 18.85 24.0499C19.01 24.1999 19.08 24.3999 19.08 24.6399C19.08 24.8799 19 25.0699 18.85 25.2299C18.69 25.3899 18.5 25.4599 18.26 25.4599C18.02 25.4599 17.82 25.3799 17.66 25.2199C17.5803 25.1481 17.5167 25.0601 17.4736 24.9619C17.4305 24.8636 17.4088 24.7573 17.41 24.6499Z" fill="#f2f2f2"/>
</svg>
