<svg width="30" height="30" viewBox="0 0 30 30" fill="none" xmlns="http://www.w3.org/2000/svg">
<path d="M2.61995 21.05C2.61995 20.81 2.69995 20.6 2.86995 20.44C3.03995 20.28 3.24995 20.2 3.49995 20.2H22.1699C22.2827 20.196 22.395 20.2152 22.5 20.2565C22.6049 20.2978 22.7003 20.3602 22.78 20.44C22.8598 20.5197 22.9222 20.6151 22.9635 20.72C23.0048 20.825 23.024 20.9373 23.0199 21.05C23.0199 21.28 22.9399 21.48 22.7699 21.63C22.5999 21.79 22.3999 21.86 22.1699 21.86H3.49995C3.24995 21.86 3.03995 21.78 2.86995 21.63C2.78903 21.557 2.7248 21.4674 2.68166 21.3673C2.63852 21.2672 2.61747 21.159 2.61995 21.05ZM5.23995 17.91C5.23995 17.67 5.32995 17.47 5.49995 17.31C5.64995 17.16 5.84995 17.08 6.08995 17.08H24.7599C24.9899 17.08 25.1799 17.16 25.3399 17.32C25.4999 17.48 25.5699 17.67 25.5699 17.91C25.5699 18.15 25.4899 18.35 25.3399 18.51C25.1799 18.68 24.9899 18.76 24.7599 18.76H6.08995C5.84995 18.76 5.64995 18.68 5.48995 18.51C5.40939 18.4325 5.34563 18.3392 5.30263 18.236C5.25962 18.1328 5.23829 18.0218 5.23995 17.91ZM5.36995 15.52C5.36995 15.61 5.41995 15.65 5.51995 15.65H6.94995C7.00995 15.65 7.07995 15.6 7.14995 15.49C7.38995 14.97 7.73995 14.55 8.20995 14.22C8.67995 13.89 9.19995 13.7 9.75995 13.66L10.3099 13.59C10.4199 13.59 10.4799 13.53 10.4799 13.41L10.5499 12.91C10.6599 11.83 11.1099 10.93 11.9199 10.21C12.7299 9.49004 13.6799 9.13004 14.7699 9.13004C15.8499 9.13004 16.7899 9.49004 17.5999 10.2C18.3999 10.91 18.8599 11.81 18.9699 12.88L19.0499 13.45C19.0499 13.56 19.1199 13.62 19.2499 13.62H20.8399C21.4799 13.62 22.0699 13.79 22.5999 14.14C23.1299 14.49 23.5199 14.94 23.7799 15.51C23.8499 15.62 23.9199 15.67 23.9899 15.67H25.4199C25.5399 15.67 25.5899 15.6 25.5599 15.44C25.2699 14.42 24.6799 13.58 23.8199 12.93C22.9499 12.28 21.9599 11.96 20.8499 11.96H20.5299C20.1999 10.63 19.4999 9.54004 18.4299 8.69004C17.3599 7.84004 16.1499 7.42004 14.7799 7.42004C13.3799 7.42004 12.1399 7.86004 11.0499 8.74004C9.95995 9.62004 9.26995 10.74 8.95995 12.1C8.10995 12.3 7.35995 12.7 6.71995 13.31C6.07995 13.92 5.62995 14.64 5.37995 15.49V15.45C5.36995 15.45 5.36995 15.48 5.36995 15.52ZM6.97995 24.11C6.97995 23.87 7.06995 23.68 7.23995 23.52C7.38995 23.37 7.58995 23.29 7.83995 23.29H26.5199C26.7599 23.29 26.9599 23.37 27.1199 23.52C27.2899 23.68 27.3699 23.87 27.3699 24.1C27.3699 24.34 27.2899 24.54 27.1199 24.71C26.9499 24.88 26.7499 24.96 26.5199 24.96H7.83995C7.60995 24.96 7.40995 24.87 7.23995 24.7C7.1567 24.6262 7.09037 24.5353 7.0455 24.4334C7.00062 24.3316 6.97827 24.2213 6.97995 24.11Z" fill="#f2f2f2"/>
</svg>
