<svg xmlns="http://www.w3.org/2000/svg" width="46" height="41" viewBox="0 0 46 41" fill="none">
<path d="M0.600006 8.848C0.600006 6.71467 1.36801 4.88 2.86134 3.38667C4.39734 1.85067 6.18934 1.12534 8.32267 1.12534C10.4133 1.12534 12.248 1.89334 13.7413 3.38667C15.2347 4.92267 16.0027 6.71467 16.0027 8.848C16.0027 10.9813 15.2347 12.816 13.7413 14.3093C12.248 15.8453 10.4133 16.5707 8.32267 16.5707C6.18934 16.5707 4.35467 15.8027 2.86134 14.3093C1.36801 12.816 0.600006 10.9813 0.600006 8.848ZM4.35467 8.848C4.35467 9.95733 4.73867 10.896 5.50667 11.7067C6.31734 12.5173 7.25601 12.9013 8.36534 12.9013C9.47467 12.9013 10.4133 12.5173 11.224 11.7067C12.0347 10.896 12.4187 9.95733 12.4187 8.848C12.4187 7.73867 12.0347 6.8 11.224 5.98934C10.4133 5.17867 9.47467 4.79467 8.36534 4.79467C7.25601 4.79467 6.31734 5.17867 5.50667 5.98934C5.13171 6.36346 4.83635 6.80959 4.63837 7.30088C4.44039 7.79216 4.34389 8.31843 4.35467 8.848ZM20.952 27.7067C20.952 30.992 21.848 33.8933 23.6827 36.4533C24.6213 37.776 25.944 38.8427 27.6507 39.6533C29.3147 40.4213 31.2347 40.848 33.368 40.848C39.5973 40.848 43.5227 38.4587 45.1013 33.7227C45.272 33.1253 45.1867 32.528 44.8453 31.9733C44.6945 31.7186 44.4908 31.4991 44.2479 31.3298C44.005 31.1605 43.7286 31.0453 43.4373 30.992C43.1497 30.9021 42.8447 30.8823 42.5478 30.9343C42.2509 30.9862 41.9707 31.1084 41.7307 31.2907C41.2187 31.632 40.8773 32.1013 40.7493 32.7413C40.7493 32.784 40.7493 32.8267 40.7067 32.9547L40.6213 33.2533C40.152 34.064 39.512 34.704 38.7013 35.1733C37.3787 35.984 35.6293 36.368 33.4533 36.368C32.1307 36.368 30.936 36.1547 29.912 35.6853C28.2053 34.96 27.0107 33.68 26.2853 31.888C25.816 30.736 25.56 29.328 25.56 27.7493V14.0107C25.56 13.3707 25.6027 12.7307 25.688 12.0907C25.8587 10.4693 26.4987 8.976 27.608 7.65334C28.8453 6.16 30.808 5.43467 33.496 5.43467C35.7147 5.43467 37.464 5.81867 38.744 6.58667C39.5973 7.09867 40.2373 7.73867 40.664 8.50667C40.7067 8.592 40.7067 8.72 40.7493 8.848C40.792 8.976 40.792 9.06134 40.792 9.104C40.9627 9.70134 41.304 10.128 41.7733 10.384C42.2853 10.6827 42.84 10.7253 43.48 10.5973C44.0773 10.4693 44.5467 10.128 44.888 9.616C45.2293 9.104 45.3147 8.54934 45.144 7.90934V7.86667L44.8027 6.88534C44.5893 6.416 44.2053 5.776 43.608 5.05067C43.0533 4.28267 42.3707 3.68533 41.688 3.17333C40.792 2.53333 39.64 2.02134 38.1893 1.552C36.7387 1.12534 35.16 0.912003 33.4533 0.912003C31.2773 0.912003 29.4 1.296 27.6933 2.064C26.0293 2.832 24.7067 3.856 23.8107 5.17867C21.976 7.696 21.0373 10.64 21.0373 14.0107V27.7067H20.952Z" fill="#f2f2f2"/>
</svg>