<svg width="30" height="30" viewBox="0 0 30 30" fill="none" xmlns="http://www.w3.org/2000/svg">
<path d="M2.61999 21.05C2.61999 20.81 2.69999 20.6 2.86999 20.44C3.03999 20.28 3.24999 20.2 3.49999 20.2H22.17C22.2827 20.1959 22.3951 20.2152 22.5 20.2564C22.605 20.2977 22.7003 20.3602 22.7801 20.4399C22.8598 20.5197 22.9223 20.615 22.9636 20.72C23.0048 20.8249 23.024 20.9373 23.02 21.05C23.02 21.28 22.94 21.48 22.77 21.63C22.6 21.79 22.4 21.86 22.17 21.86H3.49999C3.24999 21.86 3.03999 21.78 2.86999 21.63C2.78907 21.557 2.72485 21.4674 2.68171 21.3673C2.63856 21.2672 2.61751 21.159 2.61999 21.05ZM5.23999 17.91C5.23999 17.67 5.32999 17.47 5.49999 17.31C5.64999 17.16 5.84999 17.08 6.08999 17.08H24.76C24.99 17.08 25.18 17.16 25.34 17.32C25.5 17.48 25.57 17.67 25.57 17.91C25.57 18.15 25.49 18.35 25.34 18.51C25.18 18.68 24.99 18.76 24.76 18.76H6.08999C5.84999 18.76 5.64999 18.68 5.48999 18.51C5.40944 18.4325 5.34568 18.3392 5.30267 18.236C5.25967 18.1328 5.23833 18.0218 5.23999 17.91ZM5.36999 15.52C5.36999 15.61 5.41999 15.65 5.51999 15.65H6.94999C7.00999 15.65 7.07999 15.6 7.14999 15.49C7.38999 14.97 7.73999 14.55 8.20999 14.22C8.67999 13.89 9.19999 13.7 9.75999 13.66L10.31 13.59C10.42 13.59 10.48 13.53 10.48 13.41L10.55 12.91C10.66 11.83 11.11 10.93 11.92 10.21C12.73 9.49 13.68 9.13 14.77 9.13C15.85 9.13 16.79 9.49 17.6 10.2C18.4 10.91 18.86 11.81 18.97 12.88L19.05 13.45C19.05 13.56 19.12 13.62 19.25 13.62H20.84C21.48 13.62 22.07 13.79 22.6 14.14C23.13 14.49 23.52 14.94 23.78 15.51C23.85 15.62 23.92 15.67 23.99 15.67H25.42C25.54 15.67 25.59 15.6 25.56 15.44C25.27 14.42 24.68 13.58 23.82 12.93C22.95 12.28 21.96 11.96 20.85 11.96H20.53C20.2 10.63 19.5 9.54 18.43 8.69C17.36 7.84 16.15 7.42 14.78 7.42C13.38 7.42 12.14 7.86 11.05 8.74C9.95999 9.62 9.26999 10.74 8.95999 12.1C8.10999 12.3 7.35999 12.7 6.71999 13.31C6.07999 13.92 5.62999 14.64 5.37999 15.49V15.45C5.36999 15.45 5.36999 15.48 5.36999 15.52ZM6.97999 24.11C6.97999 23.87 7.06999 23.68 7.23999 23.52C7.38999 23.37 7.58999 23.29 7.83999 23.29H26.52C26.76 23.29 26.96 23.37 27.12 23.52C27.29 23.68 27.37 23.87 27.37 24.1C27.37 24.34 27.29 24.54 27.12 24.71C26.95 24.88 26.75 24.96 26.52 24.96H7.83999C7.60999 24.96 7.40999 24.87 7.23999 24.7C7.15674 24.6262 7.09042 24.5352 7.04554 24.4334C7.00067 24.3316 6.97831 24.2213 6.97999 24.11Z" fill="#f2f2f2"/>
</svg>
