<svg width="30" height="30" viewBox="0 0 30 30" fill="none" xmlns="http://www.w3.org/2000/svg">
<path d="M4.64001 14.65C4.65001 14.31 4.82001 13.79 5.14001 13.07C5.46001 12.35 5.90001 11.59 6.47001 10.77C8.33001 8.16002 10.96 6.79002 14.35 6.64002V6.21002C14.35 6.00002 14.42 5.84002 14.56 5.71002C14.7 5.58002 14.86 5.52002 15.04 5.52002C15.23 5.52002 15.39 5.58002 15.54 5.71002C15.68 5.84002 15.76 6.01002 15.76 6.21002V6.65002C16.74 6.69002 17.66 6.84002 18.51 7.10002C19.36 7.36002 20.1 7.69002 20.73 8.10002C21.36 8.51002 21.9 8.93002 22.34 9.37002C22.79 9.80002 23.19 10.27 23.54 10.78C23.95 11.37 24.31 12.01 24.6 12.68C24.89 13.35 25.1 13.89 25.21 14.29C25.32 14.69 25.38 14.89 25.39 14.9V15.09C25.39 15.27 25.32 15.41 25.18 15.53C25.04 15.65 24.88 15.7 24.69 15.7C24.38 15.7 24.18 15.61 24.09 15.44C23.31 14.56 22.46 14.13 21.54 14.13C21.2 14.15 20.85 14.23 20.51 14.36C20.17 14.49 19.89 14.63 19.69 14.78C19.48 14.92 19.29 15.07 19.11 15.22C18.93 15.37 18.84 15.44 18.83 15.45C18.64 15.62 18.46 15.71 18.3 15.71C18.07 15.71 17.9 15.65 17.78 15.53C17.05 14.8 16.39 14.36 15.77 14.21V21.95L15.76 22.16L15.72 22.39L15.66 22.64L15.57 22.9L15.44 23.17L15.27 23.43L15.06 23.68C14.55 24.27 13.83 24.56 12.88 24.56C11.87 24.56 11.11 24.27 10.6 23.68C10.48 23.56 10.38 23.43 10.29 23.3C10.2 23.16 10.13 23.03 10.08 22.89C10.03 22.76 9.99001 22.63 9.96001 22.51C9.93001 22.39 9.91001 22.27 9.90001 22.15C9.88001 22 9.87001 21.9 9.87001 21.82V21.59C9.87001 21.52 9.88001 21.47 9.88001 21.46C9.88001 21.28 9.96001 21.12 10.11 20.99C10.1847 20.926 10.2733 20.88 10.3686 20.8557C10.464 20.8314 10.5637 20.8295 10.66 20.85C10.84 20.85 10.98 20.93 11.1 21.08C11.22 21.23 11.28 21.42 11.28 21.64C11.22 22.05 11.3 22.4 11.53 22.69C11.74 22.98 12.18 23.13 12.85 23.13C13.37 23.13 13.75 23.01 13.98 22.77C14.11 22.64 14.21 22.48 14.27 22.29C14.33 22.1 14.36 21.95 14.35 21.82L14.34 21.63V14.27C13.61 14.45 12.96 14.83 12.41 15.41C12.37 15.49 12.29 15.57 12.18 15.64C12.07 15.71 11.97 15.75 11.88 15.75C11.7 15.75 11.5 15.64 11.28 15.41C10.48 14.52 9.63001 14.08 8.73001 14.1C8.33001 14.11 7.95001 14.17 7.61001 14.3C7.26001 14.43 7.00001 14.56 6.82001 14.69C6.65001 14.82 6.46001 14.97 6.28001 15.14C6.10001 15.31 5.99001 15.41 5.96001 15.43C5.75001 15.57 5.58001 15.65 5.45001 15.65C5.32001 15.65 5.15001 15.59 4.97001 15.48C4.81001 15.38 4.71001 15.27 4.67001 15.16C4.64001 15.04 4.63001 14.87 4.64001 14.65ZM6.73001 13.23C7.41001 12.87 8.05001 12.7 8.65001 12.7H8.73001C9.88001 12.7 10.93 13.14 11.88 14.03C12.26 13.7 12.72 13.41 13.27 13.15C13.81 12.89 14.4 12.74 15.04 12.7H15.12C16.27 12.7 17.32 13.14 18.27 14.03C18.65 13.7 19.11 13.41 19.66 13.15C20.2 12.89 20.79 12.74 21.43 12.7H21.52C22.08 12.7 22.67 12.85 23.27 13.14C22.83 12.28 22.53 11.73 22.39 11.48C20.6 9.14002 18.12 7.97002 14.96 7.97002C13.38 7.97002 11.97 8.27002 10.72 8.87002C9.48001 9.47002 8.46001 10.34 7.67001 11.48C7.44001 11.82 7.12001 12.41 6.73001 13.23Z" fill="#f2f2f2"/>
</svg>
