<svg width="30" height="30" viewBox="0 0 30 30" fill="none" xmlns="http://www.w3.org/2000/svg">
<path d="M4.65001 15.5C4.65001 15.28 4.73001 15.09 4.88001 14.94C5.03342 14.7941 5.23839 14.715 5.45001 14.72H17.53C17.75 14.72 17.93 14.79 18.07 14.94C18.21 15.09 18.29 15.28 18.29 15.51C18.29 15.73 18.22 15.91 18.07 16.05C17.93 16.19 17.75 16.27 17.53 16.27H5.45001C5.23001 16.27 5.03001 16.2 4.88001 16.05C4.80415 15.9804 4.74429 15.8952 4.70458 15.8003C4.66487 15.7053 4.64625 15.6029 4.65001 15.5ZM7.06001 12.6C7.06001 12.38 7.14001 12.2 7.29001 12.05C7.36297 11.9758 7.45021 11.9172 7.54646 11.8777C7.64271 11.8381 7.74597 11.8185 7.85001 11.82H19.94C20.15 11.82 20.33 11.9 20.48 12.05C20.63 12.2 20.7 12.38 20.7 12.6C20.7 12.82 20.63 13 20.48 13.16C20.33 13.31 20.15 13.39 19.94 13.39H7.86001C7.64001 13.39 7.45001 13.31 7.30001 13.16C7.15001 13.01 7.06001 12.82 7.06001 12.6ZM8.68001 18.34C8.68001 18.13 8.76001 17.95 8.92001 17.8C9.06001 17.66 9.24001 17.58 9.46001 17.58H21.56C21.78 17.58 21.97 17.65 22.12 17.8C22.27 17.94 22.34 18.12 22.34 18.34C22.34 18.56 22.26 18.75 22.11 18.9C21.96 19.05 21.77 19.13 21.55 19.13H9.46001C9.24001 19.13 9.06001 19.05 8.90001 18.9C8.74001 18.75 8.68001 18.56 8.68001 18.34ZM19.26 15.5C19.26 15.27 19.33 15.08 19.48 14.93C19.63 14.78 19.82 14.71 20.05 14.71H24.57C24.8 14.71 24.99 14.78 25.14 14.93C25.29 15.08 25.36 15.27 25.36 15.49C25.36 15.71 25.29 15.89 25.14 16.03C24.99 16.17 24.8 16.25 24.58 16.25H20.06C19.83 16.25 19.64 16.18 19.49 16.03C19.33 15.9 19.26 15.72 19.26 15.5Z" fill="#f2f2f2"/>
</svg>
